<mxfile host="Electron" modified="2024-02-07T19:56:31.863Z" agent="Mozilla/5.0 (X11; Linux x86_64) AppleWebKit/537.36 (KHTML, like Gecko) draw.io/23.0.2 Chrome/120.0.6099.109 Electron/28.1.0 Safari/537.36" etag="Dz1IsuRujoLm-9QJxebu" version="23.0.2" type="device">
  <diagram id="vC5q_rCFDmINp__hqZYc" name="Page-1">
    <mxGraphModel dx="1434" dy="1943" grid="1" gridSize="10" guides="1" tooltips="1" connect="1" arrows="1" fold="1" page="1" pageScale="1" pageWidth="850" pageHeight="1100" math="0" shadow="0">
      <root>
        <mxCell id="0" />
        <mxCell id="1" parent="0" />
        <mxCell id="AGjs3wFCSuFCD4HpUKhk-2" value="" style="group;fontColor=#000000;align=right;" parent="1" vertex="1" connectable="0">
          <mxGeometry x="392.52" y="-70" width="648.8" height="60" as="geometry" />
        </mxCell>
        <mxCell id="p-JntuWEYcH3ZJLX__9I-55" value="&lt;div style=&quot;text-align: center;&quot;&gt;&lt;/div&gt;&lt;font color=&quot;#000000&quot;&gt;&lt;div style=&quot;&quot;&gt;&lt;/div&gt;&lt;br&gt;192.168.11.0/24&lt;/font&gt;" style="rounded=1;whiteSpace=wrap;html=1;align=left;verticalAlign=top;spacingTop=10;spacingLeft=10;fillColor=#fff2cc;strokeColor=#d6b656;strokeWidth=3;" parent="AGjs3wFCSuFCD4HpUKhk-2" vertex="1">
          <mxGeometry width="648.8" height="60" as="geometry" />
        </mxCell>
        <mxCell id="AGjs3wFCSuFCD4HpUKhk-1" value="&lt;font color=&quot;#000000&quot;&gt;SAN&lt;/font&gt;" style="text;html=1;align=center;verticalAlign=middle;resizable=0;points=[];autosize=1;strokeColor=none;fillColor=none;" parent="AGjs3wFCSuFCD4HpUKhk-2" vertex="1">
          <mxGeometry x="273.93777777777774" y="4.615384615384616" width="50" height="30" as="geometry" />
        </mxCell>
        <mxCell id="AGjs3wFCSuFCD4HpUKhk-30" style="edgeStyle=orthogonalEdgeStyle;rounded=0;orthogonalLoop=1;jettySize=auto;html=1;exitX=0.5;exitY=1;exitDx=0;exitDy=0;exitPerimeter=0;entryX=0.489;entryY=0.214;entryDx=0;entryDy=0;entryPerimeter=0;endArrow=none;endFill=0;" parent="1" source="AGjs3wFCSuFCD4HpUKhk-29" target="p-JntuWEYcH3ZJLX__9I-41" edge="1">
          <mxGeometry relative="1" as="geometry" />
        </mxCell>
        <mxCell id="AGjs3wFCSuFCD4HpUKhk-20" value="" style="endArrow=none;html=1;rounded=0;exitX=0.158;exitY=-0.064;exitDx=0;exitDy=0;exitPerimeter=0;" parent="1" edge="1">
          <mxGeometry width="50" height="50" relative="1" as="geometry">
            <mxPoint x="483.36296" y="46.1599999999996" as="sourcePoint" />
            <mxPoint x="483.1499999999999" y="-10.000000000000256" as="targetPoint" />
          </mxGeometry>
        </mxCell>
        <mxCell id="AGjs3wFCSuFCD4HpUKhk-21" value="" style="endArrow=none;html=1;rounded=0;exitX=0.158;exitY=-0.064;exitDx=0;exitDy=0;exitPerimeter=0;" parent="1" edge="1">
          <mxGeometry width="50" height="50" relative="1" as="geometry">
            <mxPoint x="655.5329599999998" y="46.1599999999996" as="sourcePoint" />
            <mxPoint x="655.3199999999997" y="-10.000000000000256" as="targetPoint" />
          </mxGeometry>
        </mxCell>
        <mxCell id="AGjs3wFCSuFCD4HpUKhk-22" value="" style="endArrow=none;html=1;rounded=0;exitX=0.158;exitY=-0.064;exitDx=0;exitDy=0;exitPerimeter=0;" parent="1" edge="1">
          <mxGeometry width="50" height="50" relative="1" as="geometry">
            <mxPoint x="796.9329599999999" y="46.1599999999996" as="sourcePoint" />
            <mxPoint x="796.7199999999996" y="-10.000000000000256" as="targetPoint" />
          </mxGeometry>
        </mxCell>
        <mxCell id="AGjs3wFCSuFCD4HpUKhk-28" value="" style="endArrow=none;html=1;rounded=0;exitX=0.158;exitY=-0.064;exitDx=0;exitDy=0;exitPerimeter=0;" parent="1" edge="1">
          <mxGeometry width="50" height="50" relative="1" as="geometry">
            <mxPoint x="949.90296" y="46.15999999999954" as="sourcePoint" />
            <mxPoint x="949.6899999999997" y="-10.000000000000313" as="targetPoint" />
          </mxGeometry>
        </mxCell>
        <mxCell id="3EIEfq6k1n3s6qSAkzTQ-3" style="edgeStyle=orthogonalEdgeStyle;rounded=0;orthogonalLoop=1;jettySize=auto;html=1;exitX=1;exitY=0.5;exitDx=0;exitDy=0;fillColor=#fff2cc;strokeColor=#d6b656;endArrow=none;endFill=0;strokeWidth=3;" parent="1" source="p-JntuWEYcH3ZJLX__9I-55" target="3EIEfq6k1n3s6qSAkzTQ-2" edge="1">
          <mxGeometry relative="1" as="geometry" />
        </mxCell>
        <mxCell id="p-JntuWEYcH3ZJLX__9I-22" style="edgeStyle=orthogonalEdgeStyle;rounded=0;orthogonalLoop=1;jettySize=auto;html=1;exitX=0.5;exitY=1;exitDx=0;exitDy=0;endArrow=none;endFill=0;" parent="1" source="p-JntuWEYcH3ZJLX__9I-19" edge="1">
          <mxGeometry relative="1" as="geometry">
            <mxPoint x="714.4000000000001" y="607" as="targetPoint" />
          </mxGeometry>
        </mxCell>
        <mxCell id="p-JntuWEYcH3ZJLX__9I-19" value="&lt;span style=&quot;text-align: center;&quot;&gt;mycompany.lan&lt;br&gt;192.168.1.0/24&lt;/span&gt;" style="rounded=1;whiteSpace=wrap;html=1;align=left;verticalAlign=bottom;spacingTop=10;spacingLeft=10;" parent="1" vertex="1">
          <mxGeometry x="390" y="320" width="648.8" height="60" as="geometry" />
        </mxCell>
        <mxCell id="p-JntuWEYcH3ZJLX__9I-18" style="edgeStyle=orthogonalEdgeStyle;rounded=0;orthogonalLoop=1;jettySize=auto;html=1;exitX=0;exitY=0.5;exitDx=0;exitDy=0;endArrow=none;endFill=0;" parent="1" source="p-JntuWEYcH3ZJLX__9I-9" edge="1">
          <mxGeometry relative="1" as="geometry">
            <mxPoint x="753.4000000000001" y="646" as="targetPoint" />
          </mxGeometry>
        </mxCell>
        <mxCell id="p-JntuWEYcH3ZJLX__9I-9" value="customercare.mycompany.lan&lt;br&gt;&lt;span style=&quot;text-align: center;&quot;&gt;192.168.3.0/24&lt;/span&gt;" style="rounded=1;whiteSpace=wrap;html=1;align=right;verticalAlign=top;spacingTop=10;spacingLeft=10;spacingRight=10;" parent="1" vertex="1">
          <mxGeometry x="1080" y="486" width="200" height="320" as="geometry" />
        </mxCell>
        <mxCell id="p-JntuWEYcH3ZJLX__9I-17" style="edgeStyle=orthogonalEdgeStyle;rounded=0;orthogonalLoop=1;jettySize=auto;html=1;exitX=1;exitY=0.5;exitDx=0;exitDy=0;endArrow=none;endFill=0;" parent="1" source="p-JntuWEYcH3ZJLX__9I-8" edge="1">
          <mxGeometry relative="1" as="geometry">
            <mxPoint x="675.4000000000001" y="646" as="targetPoint" />
          </mxGeometry>
        </mxCell>
        <mxCell id="p-JntuWEYcH3ZJLX__9I-8" value="sales.mycompany.lan&lt;br&gt;&lt;span style=&quot;text-align: center;&quot;&gt;192.168.2.0/24&lt;/span&gt;" style="rounded=1;whiteSpace=wrap;html=1;align=left;verticalAlign=top;spacingTop=10;spacingLeft=10;" parent="1" vertex="1">
          <mxGeometry x="150" y="486" width="200" height="320" as="geometry" />
        </mxCell>
        <mxCell id="p-JntuWEYcH3ZJLX__9I-2" value="" style="points=[];aspect=fixed;html=1;align=center;shadow=0;dashed=0;image;image=img/lib/allied_telesis/computer_and_terminals/Personal_Computer.svg;" parent="1" vertex="1">
          <mxGeometry x="260" y="546" width="45.6" height="61.800000000000004" as="geometry" />
        </mxCell>
        <mxCell id="p-JntuWEYcH3ZJLX__9I-3" value="" style="points=[];aspect=fixed;html=1;align=center;shadow=0;dashed=0;image;image=img/lib/allied_telesis/computer_and_terminals/Personal_Computer.svg;" parent="1" vertex="1">
          <mxGeometry x="260" y="626" width="45.6" height="61.800000000000004" as="geometry" />
        </mxCell>
        <mxCell id="p-JntuWEYcH3ZJLX__9I-4" value="" style="points=[];aspect=fixed;html=1;align=center;shadow=0;dashed=0;image;image=img/lib/allied_telesis/computer_and_terminals/Personal_Computer.svg;" parent="1" vertex="1">
          <mxGeometry x="260" y="706" width="45.6" height="61.800000000000004" as="geometry" />
        </mxCell>
        <mxCell id="p-JntuWEYcH3ZJLX__9I-5" value="" style="points=[];aspect=fixed;html=1;align=center;shadow=0;dashed=0;image;image=img/lib/allied_telesis/computer_and_terminals/Personal_Computer.svg;" parent="1" vertex="1">
          <mxGeometry x="1130" y="546" width="45.6" height="61.800000000000004" as="geometry" />
        </mxCell>
        <mxCell id="p-JntuWEYcH3ZJLX__9I-6" value="" style="points=[];aspect=fixed;html=1;align=center;shadow=0;dashed=0;image;image=img/lib/allied_telesis/computer_and_terminals/Personal_Computer.svg;" parent="1" vertex="1">
          <mxGeometry x="1130" y="626" width="45.6" height="61.800000000000004" as="geometry" />
        </mxCell>
        <mxCell id="p-JntuWEYcH3ZJLX__9I-7" value="" style="points=[];aspect=fixed;html=1;align=center;shadow=0;dashed=0;image;image=img/lib/allied_telesis/computer_and_terminals/Personal_Computer.svg;" parent="1" vertex="1">
          <mxGeometry x="1130" y="706" width="45.6" height="61.800000000000004" as="geometry" />
        </mxCell>
        <mxCell id="p-JntuWEYcH3ZJLX__9I-41" value="&lt;font style=&quot;font-size: 20px;&quot;&gt;wan&lt;/font&gt;" style="ellipse;shape=cloud;whiteSpace=wrap;html=1;strokeColor=#6C8EBF;fillColor=default;" parent="1" vertex="1">
          <mxGeometry x="604.4" y="910" width="220" height="140" as="geometry" />
        </mxCell>
        <mxCell id="p-JntuWEYcH3ZJLX__9I-49" value="192.168.2&lt;br&gt;las_vmnet2&lt;br&gt;&lt;br&gt;ens2&lt;br&gt;&lt;div style=&quot;color: rgb(255, 255, 255); background-color: rgb(28, 30, 35); font-family: &amp;quot;Ubuntu Mono&amp;quot;, &amp;quot;Droid Sans Mono&amp;quot;, &amp;quot;monospace&amp;quot;, monospace, &amp;quot;Droid Sans Fallback&amp;quot;; line-height: 16px;&quot;&gt;&lt;div style=&quot;line-height: 16px;&quot;&gt;00:0c:29:fb:7c:99&lt;/div&gt;&lt;/div&gt;" style="text;html=1;align=center;verticalAlign=middle;resizable=0;points=[];autosize=1;strokeColor=none;fillColor=none;" parent="1" vertex="1">
          <mxGeometry x="555" y="597" width="130" height="90" as="geometry" />
        </mxCell>
        <mxCell id="p-JntuWEYcH3ZJLX__9I-50" value="&lt;div style=&quot;text-align: left;&quot;&gt;&lt;span style=&quot;background-color: initial;&quot;&gt;192.168.1&amp;nbsp; &amp;nbsp; &amp;nbsp; &amp;nbsp;ens1&lt;/span&gt;&lt;/div&gt;&lt;div style=&quot;text-align: left;&quot;&gt;&lt;span style=&quot;background-color: initial;&quot;&gt;las_vmnet1&amp;nbsp; &amp;nbsp; &amp;nbsp;&lt;/span&gt;00:0c:29:fb:7c:7b&lt;/div&gt;" style="text;html=1;align=center;verticalAlign=middle;resizable=0;points=[];autosize=1;strokeColor=none;fillColor=none;" parent="1" vertex="1">
          <mxGeometry x="634.4" y="546" width="190" height="40" as="geometry" />
        </mxCell>
        <mxCell id="p-JntuWEYcH3ZJLX__9I-51" value="192.168.3&lt;br&gt;las_vmnet3&lt;br&gt;&lt;br&gt;ens3&lt;br&gt;&lt;div style=&quot;color: rgb(255, 255, 255); background-color: rgb(28, 30, 35); font-family: &amp;quot;Ubuntu Mono&amp;quot;, &amp;quot;Droid Sans Mono&amp;quot;, &amp;quot;monospace&amp;quot;, monospace, &amp;quot;Droid Sans Fallback&amp;quot;; line-height: 16px;&quot;&gt;&lt;div style=&quot;line-height: 16px;&quot;&gt;00:0c:29:fb:7c:8f&lt;/div&gt;&lt;/div&gt;" style="text;html=1;align=center;verticalAlign=middle;resizable=0;points=[];autosize=1;strokeColor=none;fillColor=none;" parent="1" vertex="1">
          <mxGeometry x="753.4" y="603.75" width="130" height="90" as="geometry" />
        </mxCell>
        <mxCell id="3EIEfq6k1n3s6qSAkzTQ-2" value="nas.mycompany.lan&lt;br&gt;192.168.11.1" style="sketch=0;pointerEvents=1;shadow=0;dashed=0;html=1;strokeColor=#D6B656;fillColor=#D6B656;labelPosition=center;verticalLabelPosition=bottom;verticalAlign=top;align=center;outlineConnect=0;shape=mxgraph.veeam2.nas_backup;" parent="1" vertex="1">
          <mxGeometry x="1151.32" y="-80" width="80" height="80" as="geometry" />
        </mxCell>
        <mxCell id="3EIEfq6k1n3s6qSAkzTQ-6" value="&lt;div style=&quot;text-align: left;&quot;&gt;&lt;span style=&quot;background-color: initial;&quot;&gt;ens0&lt;/span&gt;&lt;/div&gt;&lt;div style=&quot;text-align: left;&quot;&gt;&lt;div style=&quot;color: rgb(255, 255, 255); background-color: rgb(28, 30, 35); font-family: &amp;quot;Ubuntu Mono&amp;quot;, &amp;quot;Droid Sans Mono&amp;quot;, &amp;quot;monospace&amp;quot;, monospace, &amp;quot;Droid Sans Fallback&amp;quot;; line-height: 16px;&quot;&gt; 00:0c:29:fb:7c:85&lt;/div&gt;&lt;/div&gt;" style="text;html=1;align=center;verticalAlign=middle;resizable=0;points=[];autosize=1;strokeColor=none;fillColor=none;" parent="1" vertex="1">
          <mxGeometry x="710.12" y="706" width="130" height="40" as="geometry" />
        </mxCell>
        <mxCell id="AGjs3wFCSuFCD4HpUKhk-7" value="" style="group" parent="1" vertex="1" connectable="0">
          <mxGeometry x="911.3199999999998" y="56.16" width="96.68000000000006" height="210" as="geometry" />
        </mxCell>
        <mxCell id="AGjs3wFCSuFCD4HpUKhk-3" value="192.168.11.5" style="text;html=1;align=center;verticalAlign=middle;resizable=0;points=[];autosize=1;strokeColor=none;fillColor=none;" parent="AGjs3wFCSuFCD4HpUKhk-7" vertex="1">
          <mxGeometry x="3.340000000000032" width="90" height="30" as="geometry" />
        </mxCell>
        <mxCell id="AGjs3wFCSuFCD4HpUKhk-4" value="" style="group" parent="AGjs3wFCSuFCD4HpUKhk-7" vertex="1" connectable="0">
          <mxGeometry x="1.1368683772161603e-13" y="30" width="96.67999999999995" height="130" as="geometry" />
        </mxCell>
        <mxCell id="3EIEfq6k1n3s6qSAkzTQ-5" value="crm" style="aspect=fixed;perimeter=ellipsePerimeter;html=1;align=center;shadow=0;dashed=0;spacingTop=3;image;image=img/lib/active_directory/generic_server.svg;" parent="AGjs3wFCSuFCD4HpUKhk-4" vertex="1">
          <mxGeometry width="72.8" height="130" as="geometry" />
        </mxCell>
        <mxCell id="3EIEfq6k1n3s6qSAkzTQ-4" value="" style="sketch=0;points=[[0,0,0],[0.25,0,0],[0.5,0,0],[0.75,0,0],[1,0,0],[0,1,0],[0.25,1,0],[0.5,1,0],[0.75,1,0],[1,1,0],[0,0.25,0],[0,0.5,0],[0,0.75,0],[1,0.25,0],[1,0.5,0],[1,0.75,0]];outlineConnect=0;gradientDirection=north;fillColor=#4a6ec8;strokeColor=#FFFFFF;dashed=0;verticalLabelPosition=bottom;verticalAlign=top;align=center;html=1;fontSize=12;fontStyle=0;aspect=fixed;shape=mxgraph.aws4.resourceIcon;resIcon=mxgraph.aws4.customer_engagement;perimeterSpacing=1;" parent="AGjs3wFCSuFCD4HpUKhk-4" vertex="1">
          <mxGeometry x="36.67999999999995" y="70" width="60" height="60" as="geometry" />
        </mxCell>
        <mxCell id="AGjs3wFCSuFCD4HpUKhk-5" value="192.168.1.5" style="text;html=1;align=center;verticalAlign=middle;resizable=0;points=[];autosize=1;strokeColor=none;fillColor=none;" parent="AGjs3wFCSuFCD4HpUKhk-7" vertex="1">
          <mxGeometry y="180" width="90" height="30" as="geometry" />
        </mxCell>
        <mxCell id="AGjs3wFCSuFCD4HpUKhk-10" value="" style="group" parent="1" vertex="1" connectable="0">
          <mxGeometry x="442.52" y="56.16" width="90" height="210" as="geometry" />
        </mxCell>
        <mxCell id="p-JntuWEYcH3ZJLX__9I-21" value="kdc1" style="aspect=fixed;perimeter=ellipsePerimeter;html=1;align=center;shadow=0;dashed=0;spacingTop=3;image;image=img/lib/active_directory/generic_server.svg;" parent="AGjs3wFCSuFCD4HpUKhk-10" vertex="1">
          <mxGeometry x="8.600000000000023" y="30" width="72.8" height="130" as="geometry" />
        </mxCell>
        <mxCell id="AGjs3wFCSuFCD4HpUKhk-8" value="192.168.11.2" style="text;html=1;align=center;verticalAlign=middle;resizable=0;points=[];autosize=1;strokeColor=none;fillColor=none;" parent="AGjs3wFCSuFCD4HpUKhk-10" vertex="1">
          <mxGeometry width="90" height="30" as="geometry" />
        </mxCell>
        <mxCell id="AGjs3wFCSuFCD4HpUKhk-9" value="192.168.1.2" style="text;html=1;align=center;verticalAlign=middle;resizable=0;points=[];autosize=1;strokeColor=none;fillColor=none;" parent="AGjs3wFCSuFCD4HpUKhk-10" vertex="1">
          <mxGeometry y="180" width="90" height="30" as="geometry" />
        </mxCell>
        <mxCell id="AGjs3wFCSuFCD4HpUKhk-11" value="" style="group" parent="1" vertex="1" connectable="0">
          <mxGeometry x="760.1199999999999" y="56.16" width="90" height="210" as="geometry" />
        </mxCell>
        <mxCell id="AGjs3wFCSuFCD4HpUKhk-12" value="homes" style="aspect=fixed;perimeter=ellipsePerimeter;html=1;align=center;shadow=0;dashed=0;spacingTop=3;image;image=img/lib/active_directory/generic_server.svg;" parent="AGjs3wFCSuFCD4HpUKhk-11" vertex="1">
          <mxGeometry x="8.600000000000023" y="30" width="72.8" height="130" as="geometry" />
        </mxCell>
        <mxCell id="AGjs3wFCSuFCD4HpUKhk-13" value="192.168.11.4" style="text;html=1;align=center;verticalAlign=middle;resizable=0;points=[];autosize=1;strokeColor=none;fillColor=none;" parent="AGjs3wFCSuFCD4HpUKhk-11" vertex="1">
          <mxGeometry width="90" height="30" as="geometry" />
        </mxCell>
        <mxCell id="AGjs3wFCSuFCD4HpUKhk-14" value="192.168.1.4" style="text;html=1;align=center;verticalAlign=middle;resizable=0;points=[];autosize=1;strokeColor=none;fillColor=none;" parent="AGjs3wFCSuFCD4HpUKhk-11" vertex="1">
          <mxGeometry y="180" width="90" height="30" as="geometry" />
        </mxCell>
        <mxCell id="AGjs3wFCSuFCD4HpUKhk-15" value="" style="endArrow=none;html=1;rounded=0;exitX=0.158;exitY=-0.064;exitDx=0;exitDy=0;exitPerimeter=0;" parent="1" edge="1">
          <mxGeometry width="50" height="50" relative="1" as="geometry">
            <mxPoint x="491.33296" y="319.99999999999966" as="sourcePoint" />
            <mxPoint x="491.11999999999995" y="263.84000000000003" as="targetPoint" />
          </mxGeometry>
        </mxCell>
        <mxCell id="AGjs3wFCSuFCD4HpUKhk-18" value="" style="endArrow=none;html=1;rounded=0;exitX=0.158;exitY=-0.064;exitDx=0;exitDy=0;exitPerimeter=0;" parent="1" edge="1">
          <mxGeometry width="50" height="50" relative="1" as="geometry">
            <mxPoint x="663.5029599999999" y="319.99999999999966" as="sourcePoint" />
            <mxPoint x="663.2899999999998" y="263.8399999999998" as="targetPoint" />
          </mxGeometry>
        </mxCell>
        <mxCell id="AGjs3wFCSuFCD4HpUKhk-19" value="" style="endArrow=none;html=1;rounded=0;exitX=0.158;exitY=-0.064;exitDx=0;exitDy=0;exitPerimeter=0;" parent="1" edge="1">
          <mxGeometry width="50" height="50" relative="1" as="geometry">
            <mxPoint x="804.9029599999998" y="319.99999999999966" as="sourcePoint" />
            <mxPoint x="804.6899999999997" y="263.8399999999998" as="targetPoint" />
          </mxGeometry>
        </mxCell>
        <mxCell id="AGjs3wFCSuFCD4HpUKhk-23" value="" style="group" parent="1" vertex="1" connectable="0">
          <mxGeometry x="612.1999999999999" y="56.16" width="90" height="210" as="geometry" />
        </mxCell>
        <mxCell id="AGjs3wFCSuFCD4HpUKhk-24" value="kdc2" style="aspect=fixed;perimeter=ellipsePerimeter;html=1;align=center;shadow=0;dashed=0;spacingTop=3;image;image=img/lib/active_directory/generic_server.svg;" parent="AGjs3wFCSuFCD4HpUKhk-23" vertex="1">
          <mxGeometry x="8.600000000000023" y="30" width="72.8" height="130" as="geometry" />
        </mxCell>
        <mxCell id="AGjs3wFCSuFCD4HpUKhk-25" value="192.168.11.3" style="text;html=1;align=center;verticalAlign=middle;resizable=0;points=[];autosize=1;strokeColor=none;fillColor=none;" parent="AGjs3wFCSuFCD4HpUKhk-23" vertex="1">
          <mxGeometry width="90" height="30" as="geometry" />
        </mxCell>
        <mxCell id="AGjs3wFCSuFCD4HpUKhk-26" value="192.168.1.3" style="text;html=1;align=center;verticalAlign=middle;resizable=0;points=[];autosize=1;strokeColor=none;fillColor=none;" parent="AGjs3wFCSuFCD4HpUKhk-23" vertex="1">
          <mxGeometry y="180" width="90" height="30" as="geometry" />
        </mxCell>
        <mxCell id="AGjs3wFCSuFCD4HpUKhk-27" value="" style="endArrow=none;html=1;rounded=0;exitX=0.158;exitY=-0.064;exitDx=0;exitDy=0;exitPerimeter=0;" parent="1" edge="1">
          <mxGeometry width="50" height="50" relative="1" as="geometry">
            <mxPoint x="957.8729599999997" y="319.9999999999999" as="sourcePoint" />
            <mxPoint x="957.6599999999999" y="263.84000000000003" as="targetPoint" />
          </mxGeometry>
        </mxCell>
        <mxCell id="AGjs3wFCSuFCD4HpUKhk-29" value="" style="sketch=0;points=[[0.5,0,0],[1,0.5,0],[0.5,1,0],[0,0.5,0],[0.145,0.145,0],[0.8555,0.145,0],[0.855,0.8555,0],[0.145,0.855,0]];verticalLabelPosition=bottom;html=1;verticalAlign=top;aspect=fixed;align=center;pointerEvents=1;shape=mxgraph.cisco19.rect;prIcon=router_with_firewall;fillColor=#FAFAFA;strokeColor=#005073;" parent="1" vertex="1">
          <mxGeometry x="671.5" y="607.8" width="81.9" height="81.9" as="geometry" />
        </mxCell>
      </root>
    </mxGraphModel>
  </diagram>
</mxfile>
